<svg width="57" height="57" viewBox="0 0 57 57" fill="none" xmlns="http://www.w3.org/2000/svg">
<circle cx="28.5" cy="28.5" r="28" fill="#DFB51D" stroke="#DFB51D"/>
<path fill-rule="evenodd" clip-rule="evenodd" d="M21.8869 21.4978C21.8869 17.8455 24.8477 14.8847 28.5 14.8847C32.1523 14.8847 35.1132 17.8455 35.1132 21.4978C35.1132 25.1502 32.1523 28.111 28.5 28.111C24.8477 28.111 21.8869 25.1502 21.8869 21.4978ZM28.5 17.2187C26.1367 17.2187 24.2209 19.1345 24.2209 21.4978C24.2209 23.8611 26.1367 25.7769 28.5 25.7769C30.8633 25.7769 32.7791 23.8611 32.7791 21.4978C32.7791 19.1345 30.8633 17.2187 28.5 17.2187Z" fill="black"/>
<path fill-rule="evenodd" clip-rule="evenodd" d="M22.2759 32.7791C20.3423 32.7791 18.7748 34.3466 18.7748 36.2802V38.1292C18.7748 38.1573 18.7952 38.1813 18.823 38.1859C25.2319 39.2322 31.7681 39.2322 38.177 38.1859C38.2048 38.1813 38.2252 38.1573 38.2252 38.1292V36.2802C38.2252 34.3466 36.6577 32.7791 34.7241 32.7791H34.1937C34.1527 32.7791 34.112 32.7856 34.073 32.7983L32.7262 33.2381C29.9801 34.1347 27.0199 34.1347 24.2738 33.2381L22.927 32.7983C22.888 32.7856 22.8473 32.7791 22.8063 32.7791H22.2759ZM16.4407 36.2802C16.4407 33.0575 19.0532 30.445 22.2759 30.445H22.8063C23.0933 30.445 23.3786 30.4904 23.6515 30.5795L24.9983 31.0193C27.2736 31.7623 29.7264 31.7623 32.0017 31.0193L33.3485 30.5795C33.6214 30.4904 33.9067 30.445 34.1937 30.445H34.7241C37.9468 30.445 40.5593 33.0575 40.5593 36.2802V38.1292C40.5593 39.3012 39.7099 40.3006 38.5531 40.4894C31.8951 41.5764 25.1049 41.5764 18.4469 40.4894C17.2901 40.3006 16.4407 39.3012 16.4407 38.1292V36.2802Z" fill="black"/>
</svg>
