<svg id="visual" viewBox="0 0 900 600" width="900" height="600" xmlns="http://www.w3.org/2000/svg" xmlns:xlink="http://www.w3.org/1999/xlink" version="1.1"><path d="M0 73L69 91L138 205L208 235L277 145L346 181L415 193L485 73L554 211L623 109L692 127L762 169L831 199L900 157L900 0L831 0L762 0L692 0L623 0L554 0L485 0L415 0L346 0L277 0L208 0L138 0L69 0L0 0Z" fill="#00cc8e"></path><path d="M0 289L69 325L138 337L208 385L277 259L346 307L415 331L485 277L554 361L623 277L692 271L762 343L831 289L900 271L900 155L831 197L762 167L692 125L623 107L554 209L485 71L415 191L346 179L277 143L208 233L138 203L69 89L0 71Z" fill="#00bd8b"></path><path d="M0 379L69 409L138 373L208 421L277 331L346 337L415 379L485 307L554 391L623 367L692 331L762 373L831 319L900 355L900 269L831 287L762 341L692 269L623 275L554 359L485 275L415 329L346 305L277 257L208 383L138 335L69 323L0 287Z" fill="#00ae87"></path><path d="M0 421L69 445L138 415L208 457L277 391L346 397L415 409L485 385L554 463L623 451L692 373L762 421L831 379L900 415L900 353L831 317L762 371L692 329L623 365L554 389L485 305L415 377L346 335L277 329L208 419L138 371L69 407L0 377Z" fill="#00a081"></path><path d="M0 505L69 481L138 517L208 511L277 475L346 475L415 529L485 475L554 511L623 541L692 469L762 505L831 457L900 451L900 413L831 377L762 419L692 371L623 449L554 461L485 383L415 407L346 395L277 389L208 455L138 413L69 443L0 419Z" fill="#00917b"></path><path d="M0 601L69 601L138 601L208 601L277 601L346 601L415 601L485 601L554 601L623 601L692 601L762 601L831 601L900 601L900 449L831 455L762 503L692 467L623 539L554 509L485 473L415 527L346 473L277 473L208 509L138 515L69 479L0 503Z" fill="#038373"></path></svg>