<svg width="140" height="140" viewBox="0 0 140 140" fill="none" xmlns="http://www.w3.org/2000/svg">
<path d="M110.394 28.001C110.338 28.0028 110.281 28.0081 110.226 28.0162H54.4368C54.0244 28.0162 53.6287 28.1801 53.3373 28.4719L28.4539 53.356C28.1628 53.6478 27.9992 54.0431 27.9995 54.4556V110.445C27.9995 111.304 28.6959 112 29.5547 112H85.5422C85.9547 112 86.3503 111.836 86.6418 111.544L111.525 86.6602C111.817 86.3685 111.981 85.9731 111.981 85.5607V29.8088C112.024 29.531 111.992 29.2467 111.887 28.9861C111.882 28.9721 111.876 28.9581 111.871 28.9441C111.619 28.3562 111.034 27.982 110.395 28.0007L110.394 28.001ZM55.0807 31.1267H106.67L84.8968 52.9003H33.3077L55.0807 31.1267ZM108.869 33.3259V84.9165L87.0962 106.69V55.0994L108.869 33.3259ZM54.4132 34.2152C53.555 34.2282 52.8695 34.934 52.8816 35.7922V48.2342C52.8695 49.093 53.5559 49.7994 54.4147 49.8116C55.2735 49.8237 55.9799 49.1372 55.992 48.2784C55.9923 48.2638 55.9923 48.2492 55.992 48.2345V35.7925C56.0042 34.9337 55.3177 34.2276 54.4586 34.2155C54.4437 34.2148 54.4284 34.2148 54.4132 34.2152ZM31.1087 56.0108H83.9858V108.889H31.1087V56.0108ZM54.4132 59.0992C53.555 59.1123 52.8695 59.8181 52.8816 60.6763V70.0078C52.8695 70.8666 53.5559 71.573 54.4147 71.5851C55.2735 71.5973 55.9799 70.9108 55.992 70.052C55.9923 70.0373 55.9923 70.0227 55.992 70.0081V60.6766C56.0042 59.8178 55.3177 59.1117 54.4586 59.0996C54.4437 59.0989 54.4284 59.0989 54.4132 59.0992ZM54.4132 77.7623C53.555 77.7754 52.8695 78.4811 52.8816 79.3393V84.9165L47.1164 90.6818C46.4968 91.2768 46.4766 92.2613 47.0717 92.8809C47.6667 93.5005 48.6511 93.5208 49.2707 92.9257C49.286 92.9111 49.3009 92.8962 49.3155 92.8809L55.0807 87.1156H60.6576C61.5164 87.1277 62.2228 86.4412 62.2349 85.5824C62.2471 84.7236 61.5606 84.0172 60.7018 84.0051C60.6872 84.0048 60.6726 84.0048 60.658 84.0051H55.9923V79.3393C56.0045 78.4805 55.318 77.7744 54.4589 77.7623C54.4437 77.762 54.4284 77.762 54.4132 77.7623ZM69.9889 84.0051C69.1301 83.993 68.4237 84.6795 68.4116 85.5383C68.3995 86.3971 69.0859 87.1035 69.9447 87.1156C69.9593 87.1159 69.974 87.1159 69.9886 87.1156H79.3198C80.1786 87.1277 80.885 86.4412 80.8971 85.5824C80.9093 84.7236 80.2228 84.0172 79.364 84.0051C79.3494 84.0048 79.3348 84.0048 79.3201 84.0051H69.9889ZM91.7618 84.0051C90.903 83.993 90.1967 84.6795 90.1845 85.5383C90.1724 86.3971 90.8589 87.1035 91.7176 87.1156C91.7323 87.1159 91.7469 87.1159 91.7615 87.1156H104.203C105.062 87.1277 105.768 86.4412 105.78 85.5824C105.793 84.7236 105.106 84.0172 104.247 84.0051C104.233 84.0048 104.218 84.0048 104.203 84.0051H91.7618ZM41.9647 96.4322C41.5606 96.4443 41.1771 96.6132 40.8953 96.9031L34.6745 103.124C34.0549 103.719 34.0347 104.704 34.6297 105.323C35.2247 105.943 36.2091 105.963 36.8287 105.368C36.844 105.353 36.8589 105.339 36.8735 105.323L43.0944 99.1023C43.7102 98.5035 43.7242 97.5187 43.1255 96.9028C42.8219 96.5899 42.4007 96.4191 41.9647 96.4322Z" fill="#AAADB3"/>
</svg>
