<svg width="171" height="179" viewBox="0 0 171 179" fill="none" xmlns="http://www.w3.org/2000/svg">
<path d="M170.427 31.6516L139.228 0.571583C138.668 0.0138427 137.83 -0.154912 137.102 0.150546C136.374 0.450177 135.899 1.15968 135.899 1.94517V5.83017H131.999C130.922 5.83017 130.049 6.69896 130.049 7.77267V11.6577H126.149C125.361 11.6577 124.649 12.1299 124.347 12.8567C124.045 13.5834 124.212 14.418 124.77 14.9738L131.191 21.3704H39.8072L46.2284 14.9738C46.7863 14.418 46.9531 13.5832 46.6511 12.8567C46.3491 12.1302 45.6381 11.6577 44.8495 11.6577H40.9496V7.77267C40.9496 6.69896 40.0765 5.83017 38.9996 5.83017H35.0997V1.94517C35.0997 1.15992 34.6246 0.45042 33.8961 0.150546C33.1648 -0.154912 32.3288 0.0138427 31.7708 0.571583L0.571293 31.6516C0.0133576 32.2074 -0.153365 33.0422 0.148637 33.7687C0.450639 34.4952 1.16165 34.9677 1.95017 34.9677H5.85011V38.8527C5.85011 39.9264 6.72321 40.7952 7.80008 40.7952H11.7V44.6802C11.7 45.4654 12.1751 46.1749 12.9036 46.4748C13.1454 46.5753 13.3987 46.6227 13.6502 46.6227C14.1577 46.6227 14.6557 46.4253 15.0289 46.0535L21.4501 39.6569V176.61C21.4501 177.189 21.7083 177.735 22.1548 178.105C22.508 178.397 22.9489 178.552 23.4001 178.552C23.52 178.552 23.6399 178.541 23.7591 178.518L139.995 166.895C147.494 165.345 149.549 160.175 149.549 159.127V39.6569L155.97 46.0535C156.343 46.4253 156.841 46.6227 157.349 46.6227C157.6 46.6227 157.853 46.5753 158.096 46.4748C158.824 46.1752 159.299 45.4657 159.299 44.6802V40.7952H163.199C164.276 40.7952 165.149 39.9264 165.149 38.8527V34.9677H169.049C169.837 34.9677 170.549 34.4954 170.851 33.7687C171.153 33.0419 170.985 32.2074 170.427 31.6516ZM21.4499 34.163L15.6 39.9905V38.8522C15.6 37.7785 14.7269 36.9097 13.65 36.9097H9.75005V33.0247C9.75005 31.951 8.87695 31.0822 7.80008 31.0822H6.6574L31.1997 6.63437V7.77267C31.1997 8.84639 32.0728 9.71517 33.1497 9.71517H37.0497V13.6002C37.0497 14.6739 37.9228 15.5427 38.9996 15.5427H40.1423L34.2924 21.3702L21.4499 34.163ZM57.5 171L131.259 161.406C131.861 162.166 132.735 163.164 133.789 164.102L57.5 171ZM145.649 158.57C145.649 160.132 142.197 163.013 139.799 163.013C137.655 163.013 134.71 159.668 133.62 158.048C133.135 157.327 132.228 157.013 131.402 157.278L25.3496 173.945V35.7719L35.907 25.2552H135.091L145.649 35.7719V158.57ZM163.199 31.0824C162.122 31.0824 161.249 31.9512 161.249 33.0249V36.9099H157.349C156.272 36.9099 155.399 37.7787 155.399 38.8524V39.9907L149.549 34.1632L143.651 28.2877L140.606 25.2549L136.706 21.3699L130.856 15.5424H131.999C133.076 15.5424 133.949 14.6736 133.949 13.5999V9.71493H137.849C138.926 9.71493 139.799 8.84615 139.799 7.77243V6.63413L164.341 31.0824H163.199Z" fill="#252525"/>
<rect x="109.875" y="88" width="6" height="8" rx="3" fill="#252525"/>
<rect x="55" y="88" width="6" height="8" rx="3" fill="#252525"/>
<path fill-rule="evenodd" clip-rule="evenodd" d="M88.8974 105.659C86.8539 103.623 83.5407 103.623 81.4972 105.659C80.6693 106.483 79.3272 106.483 78.4994 105.659C77.6715 104.834 77.6715 103.497 78.4994 102.672C82.1985 98.9873 88.196 98.9873 91.8952 102.672C92.723 103.497 92.723 104.834 91.8952 105.659C91.0674 106.483 89.7252 106.483 88.8974 105.659Z" fill="#252525"/>
</svg>
